# xmcd CD database file
#
# Track frame offsets:
#	150
#	16360
#	31617
#	46922
#	65077
#	77905
#	93335
#	106837
#	124112
#	136257
#	151170
#	165152
#	182542
#	198475
#	211805
#	227122
#	244450
#	262395
#	274687
#	287687
#	306767
#
# Disc length: 4369 seconds
#
# Revision: 2
# Processed by: cddbd v1.5.2PL0 Copyright (c) Steve Scherf et al.
# Submitted via: CDex 1.70beta2
#
DISCID=1e110f15
DTITLE=Rod Mason and His Hot Five - Rod Mason's Hot Music
DYEAR=1988
DGENRE=Jazz
TTITLE0=Deep Henderson
TTITLE1=Hard Hearted Hannah
TTITLE2=You're Driving Me Crazy
TTITLE3=St. Louis Blues
TTITLE4=Pasadena
TTITLE5=Sugarfoot Stomp
TTITLE6=I'd Love It
TTITLE7=I'm In The Market For You
TTITLE8=A Cup Of Coffee, A Sandwich And You
TTITLE9=Aunt Hagars Blues
TTITLE10=Button Up Your Overcoat
TTITLE11=New Orleans Feels Like Home
TTITLE12=When The Saints Go Marching In
TTITLE13=Whistling Rufus
TTITLE14=Just A Gigolo
TTITLE15=My Monday Date
TTITLE16=Jackass Blues
TTITLE17=Take Your Pick
TTITLE18=By The Beautiful Sea
TTITLE19=Original Dixieland One-Step
TTITLE20=Whisky Drinking Woman
EXTD=Hot Five and Savannah Orchestra YEAR: 1988
EXTT0=
EXTT1=
EXTT2=
EXTT3=
EXTT4=
EXTT5=
EXTT6=
EXTT7=
EXTT8=
EXTT9=
EXTT10=
EXTT11=
EXTT12=
EXTT13=
EXTT14=
EXTT15=
EXTT16=
EXTT17=
EXTT18=
EXTT19=
EXTT20=
PLAYORDER=
